<svg width="128" height="140" viewBox="0 0 128 140" fill="none" xmlns="http://www.w3.org/2000/svg">
<path d="M21 49.2749C21 48.0092 21 47.3763 21.3247 46.8784C21.6494 46.3804 22.2285 46.1252 23.3868 45.6147L72.328 24.0443C73.1227 23.6941 73.52 23.5189 73.9412 23.5189C74.3624 23.5189 74.7597 23.6941 75.5544 24.0443L124.496 45.6147C125.654 46.1252 126.233 46.3804 126.558 46.8784C126.882 47.3763 126.882 48.0092 126.882 49.2749V112.667C126.882 114.552 126.882 115.495 126.297 116.081C125.711 116.667 124.768 116.667 122.882 116.667H25C23.1144 116.667 22.1716 116.667 21.5858 116.081C21 115.495 21 114.552 21 112.667V49.2749Z" stroke="white" stroke-width="2"/>
<path d="M21 58.3333L40.2861 75.3336C40.6514 75.6556 41.1216 75.8333 41.6086 75.8333H106.274C106.761 75.8333 107.231 75.6556 107.596 75.3336L126.882 58.3333" stroke="white" stroke-width="2" stroke-linecap="round"/>
</svg>
